# Blender v2.83.1 OBJ File: 'long_edge.blend'
# www.blender.org
mtllib long_edge.mtl
o Cylinder
v 0.150000 0.000000 0.037500
v -0.010000 -0.000000 0.037500
v 0.150000 -0.015761 -0.000000
v -0.010000 -0.015761 0.000000
v 0.150000 0.015761 -0.000000
v -0.010000 0.015761 0.000000
vt 1.000000 0.500000
vt 1.000000 1.000000
vt 0.666667 1.000000
vt 0.666667 0.500000
vt 0.333333 1.000000
vt 0.333333 0.500000
vt 0.457846 0.130000
vt 0.250000 0.490000
vt 0.042154 0.130000
vt -0.000000 1.000000
vt -0.000000 0.500000
vt 0.750000 0.490000
vt 0.957846 0.130000
vt 0.542154 0.130000
vn 0.0000 -0.9219 0.3875
vn -0.0000 0.0000 -1.0000
vn -1.0000 -0.0000 0.0000
vn -0.0000 0.9219 0.3875
vn 1.0000 -0.0000 0.0000
usemtl None
s off
f 1/1/1 2/2/1 4/3/1 3/4/1
f 3/4/2 4/3/2 6/5/2 5/6/2
f 4/7/3 2/8/3 6/9/3
f 5/6/4 6/5/4 2/10/4 1/11/4
f 1/12/5 3/13/5 5/14/5
